<svg width="28" height="28" viewBox="0 0 28 28" fill="none" xmlns="http://www.w3.org/2000/svg">
<path d="M9.62492 19.6L13.9999 15.225L18.3749 19.6L19.5999 18.375L15.2249 14L19.5999 9.62504L18.3749 8.40004L13.9999 12.775L9.62492 8.40004L8.39992 9.62504L12.7749 14L8.39992 18.375L9.62492 19.6ZM13.9999 25.6667C12.4055 25.6667 10.8985 25.3605 9.47909 24.748C8.05964 24.1355 6.82006 23.2993 5.76034 22.2396C4.70061 21.1799 3.8645 19.9403 3.252 18.5209C2.6395 17.1014 2.33325 15.5945 2.33325 14C2.33325 12.3862 2.6395 10.8695 3.252 9.45004C3.8645 8.0306 4.70061 6.79587 5.76034 5.74587C6.82006 4.69587 8.05964 3.86462 9.47909 3.25212C10.8985 2.63962 12.4055 2.33337 13.9999 2.33337C15.6138 2.33337 17.1305 2.63962 18.5499 3.25212C19.9694 3.86462 21.2041 4.69587 22.2541 5.74587C23.3041 6.79587 24.1353 8.0306 24.7478 9.45004C25.3603 10.8695 25.6666 12.3862 25.6666 14C25.6666 15.5945 25.3603 17.1014 24.7478 18.5209C24.1353 19.9403 23.3041 21.1799 22.2541 22.2396C21.2041 23.2993 19.9694 24.1355 18.5499 24.748C17.1305 25.3605 15.6138 25.6667 13.9999 25.6667Z" fill="#D95423"/>
</svg>
